<svg width="38" height="37" viewBox="0 0 38 37" fill="none" xmlns="http://www.w3.org/2000/svg">
<path d="M12.4425 29.205C12.4425 29.355 12.27 29.475 12.0525 29.475C11.805 29.4975 11.6325 29.3775 11.6325 29.205C11.6325 29.055 11.805 28.935 12.0225 28.935C12.2475 28.9125 12.4425 29.0325 12.4425 29.205ZM10.11 28.8675C10.0575 29.0175 10.2075 29.19 10.4325 29.235C10.6275 29.31 10.8525 29.235 10.8975 29.085C10.9425 28.935 10.8 28.7625 10.575 28.695C10.38 28.6425 10.1625 28.7175 10.11 28.8675ZM13.425 28.74C13.2075 28.7925 13.0575 28.935 13.08 29.1075C13.1025 29.2575 13.2975 29.355 13.5225 29.3025C13.74 29.25 13.89 29.1075 13.8675 28.9575C13.845 28.815 13.6425 28.7175 13.425 28.74ZM18.36 0C7.9575 0 0 7.8975 0 18.3C0 26.6175 5.235 33.735 12.7125 36.24C13.6725 36.4125 14.01 35.82 14.01 35.3325C14.01 34.8675 13.9875 32.3025 13.9875 30.7275C13.9875 30.7275 8.7375 31.8525 7.635 28.4925C7.635 28.4925 6.78 26.31 5.55 25.7475C5.55 25.7475 3.8325 24.57 5.67 24.5925C5.67 24.5925 7.5375 24.7425 8.565 26.5275C10.2075 29.4225 12.96 28.59 14.0325 28.095C14.205 26.895 14.6925 26.0625 15.2325 25.5675C11.04 25.1025 6.81 24.495 6.81 17.28C6.81 15.2175 7.38 14.1825 8.58 12.8625C8.385 12.375 7.7475 10.365 8.775 7.77C10.3425 7.2825 13.95 9.795 13.95 9.795C15.45 9.375 17.0625 9.1575 18.66 9.1575C20.2575 9.1575 21.87 9.375 23.37 9.795C23.37 9.795 26.9775 7.275 28.545 7.77C29.5725 10.3725 28.935 12.375 28.74 12.8625C29.94 14.19 30.675 15.225 30.675 17.28C30.675 24.5175 26.2575 25.095 22.065 25.5675C22.755 26.16 23.34 27.285 23.34 29.0475C23.34 31.575 23.3175 34.7025 23.3175 35.3175C23.3175 35.805 23.6625 36.3975 24.615 36.225C32.115 33.735 37.2 26.6175 37.2 18.3C37.2 7.8975 28.7625 0 18.36 0ZM7.29 25.8675C7.1925 25.9425 7.215 26.115 7.3425 26.2575C7.4625 26.3775 7.635 26.43 7.7325 26.3325C7.83 26.2575 7.8075 26.085 7.68 25.9425C7.56 25.8225 7.3875 25.77 7.29 25.8675ZM6.48 25.26C6.4275 25.3575 6.5025 25.4775 6.6525 25.5525C6.7725 25.6275 6.9225 25.605 6.975 25.5C7.0275 25.4025 6.9525 25.2825 6.8025 25.2075C6.6525 25.1625 6.5325 25.185 6.48 25.26ZM8.91 27.93C8.79 28.0275 8.835 28.2525 9.0075 28.395C9.18 28.5675 9.3975 28.59 9.495 28.47C9.5925 28.3725 9.5475 28.1475 9.3975 28.005C9.2325 27.8325 9.0075 27.81 8.91 27.93ZM8.055 26.8275C7.935 26.9025 7.935 27.0975 8.055 27.27C8.175 27.4425 8.3775 27.5175 8.475 27.4425C8.595 27.345 8.595 27.15 8.475 26.9775C8.37 26.805 8.175 26.73 8.055 26.8275Z" fill="white"/>
</svg>
