<svg width="38" height="44" viewBox="0 0 38 44" fill="none" xmlns="http://www.w3.org/2000/svg">
<path d="M37.2344 32.9999C37.5303 32.4684 37.7141 31.8697 37.7141 31.3319V12.6678C37.7141 12.1301 37.5304 11.5314 37.2344 11L18.8569 22L37.2344 32.9999Z" fill="#666666"/>
<path d="M20.4908 43.5966L36.0819 34.2645C36.5311 33.9957 36.9393 33.5315 37.2352 33L18.8578 22L0.480469 33C0.776401 33.5315 1.18472 33.9958 1.63373 34.2645L17.2248 43.5966C18.1228 44.1344 19.5928 44.1344 20.4908 43.5966Z" fill="#353535"/>
<path d="M37.2346 10.9999C36.9387 10.4684 36.5303 10.0042 36.0813 9.73534L20.4902 0.40326C19.5921 -0.13442 18.1222 -0.13442 17.2241 0.40326L1.63306 9.73534C0.734817 10.2729 0 11.5926 0 12.6678V31.3321C0 31.8697 0.183763 32.4686 0.479805 33L18.8572 22L37.2346 10.9999Z" fill="#969696"/>
<path d="M18.9176 34.5715C11.9524 34.5715 6.28564 28.9319 6.28564 22C6.28564 15.0681 11.9524 9.42859 18.9176 9.42859C23.3291 9.42859 27.4487 11.7475 29.7298 15.4971L24.3202 18.7417C23.1773 16.8709 21.1198 15.7143 18.9176 15.7143C15.4348 15.7143 12.6017 18.5341 12.6017 22C12.6017 25.466 15.4348 28.2857 18.9176 28.2857C21.114 28.2857 23.1661 27.1356 24.3111 25.2736L29.7322 28.4993C27.4516 32.2511 23.3305 34.5715 18.9176 34.5715Z" fill="white"/>
<path fill-rule="evenodd" clip-rule="evenodd" d="M33.0002 17.2858V18.8531H29.8571V17.2858H28.2859V18.8531H26.7144V20.4286H28.2859V23.5633H26.7144V25.1429H28.2859V26.7143H29.8571L29.8572 25.1429H33.0002V26.7143H34.5714V25.1429H36.1429V23.5715H34.5714V20.4286H36.1429V18.8531H34.5714V17.2858H33.0002ZM33.0002 23.5715V20.4286H29.8571V23.5633L33.0002 23.5715Z" fill="white"/>
</svg>
