<svg width="44" height="44" viewBox="0 0 44 44" fill="none" xmlns="http://www.w3.org/2000/svg">
<g clip-path="url(#clip0_33_161)">
<path d="M0 8C0 3.58172 3.58172 0 8 0H36C40.4183 0 44 3.58172 44 8V36C44 40.4183 40.4183 44 36 44H8C3.58172 44 0 40.4183 0 36V8Z" fill="black"/>
<path d="M11.569 36.7696L11.8469 36.6014C13.5375 35.5783 15.618 36.8582 17.5941 36.8582C18.9528 36.8582 19.8096 36.3267 19.8096 34.2594V22.2678C19.8096 21.126 20.7352 20.2004 21.877 20.2004C23.0188 20.2004 23.9444 21.126 23.9444 22.2678V34.3178C23.9444 38.6004 21.434 40.5499 17.7713 40.5499C14.4636 40.5499 12.5436 38.8368 11.5688 36.7693M26.1903 36.3265C28.0629 35.2423 30.3872 36.2602 32.4923 36.7612C32.8392 36.8437 33.2177 36.8879 33.633 36.8879C35.3464 36.8879 36.4388 36.0313 36.4388 34.8498C36.4388 33.4322 35.3165 32.9299 33.4262 32.1032L32.3927 31.6598C29.4095 30.3901 27.4307 28.7951 27.4307 25.4281C27.4307 22.3268 29.7934 19.9639 33.4855 19.9639C35.4928 19.9639 37.0696 20.4979 38.3078 21.8157C38.9999 22.5523 38.6971 23.6996 37.8466 24.2458C36.9234 24.8386 35.7675 24.3798 34.7998 23.8627C34.4186 23.6591 33.9897 23.5676 33.4853 23.5676C32.2743 23.5676 31.5063 24.3355 31.5063 25.3396C31.5063 26.58 32.2743 27.0824 34.0463 27.8504L35.08 28.2933C38.5948 29.7998 40.5736 31.3355 40.5736 34.7908C40.5736 38.5126 37.6497 40.5504 33.7215 40.5504C29.882 40.5504 27.4009 38.7192 26.1901 36.3267" fill="white"/>
</g>
<defs>
<clipPath id="clip0_33_161">
<rect width="44" height="44" fill="white"/>
</clipPath>
</defs>
</svg>
