<svg width="19" height="26" viewBox="0 0 19 26" fill="none" xmlns="http://www.w3.org/2000/svg">
<path d="M1.8125 3.9875V7.25C1.8125 8.06562 2.175 8.88125 2.9 9.425L6.25312 11.9625C6.525 12.1438 6.61562 12.4156 6.61562 12.6875C6.61562 12.9594 6.525 13.2312 6.25312 13.4125L2.9 15.95C2.175 16.4938 1.8125 17.3094 1.8125 18.125V21.3875C0.725 22.0219 0 23.2 0 24.4688C0 25.0125 0.362499 25.375 0.90625 25.375H17.2188C17.7625 25.375 18.125 25.0125 18.125 24.4688C18.125 23.1094 17.4 22.0219 16.3125 21.3875V18.125C16.3125 17.3094 15.95 16.4938 15.225 15.95L11.8719 13.4125C11.6 13.2312 11.5094 12.9594 11.5094 12.6875C11.5094 12.4156 11.6 12.1438 11.8719 11.9625L15.225 9.425C15.95 8.88125 16.3125 8.06562 16.3125 7.25V3.9875C17.4 3.35312 18.125 2.175 18.125 0.90625C18.125 0.362499 17.7625 0 17.2188 0H0.90625C0.362499 0 0 0.362499 0 0.90625C0 2.26562 0.725 3.35312 1.8125 3.9875ZM12.325 17.4C12.6875 17.5812 12.7781 18.0344 12.6875 18.3969C12.5062 18.7594 12.1438 19.0312 11.7812 19.0312H6.34375C5.98125 19.0312 5.61875 18.7594 5.4375 18.3969C5.34688 18.0344 5.4375 17.5812 5.8 17.4L8.51875 15.5875C8.7 15.4969 8.88125 15.4062 9.0625 15.4062C9.24375 15.4062 9.425 15.4969 9.60625 15.5875L12.325 17.4ZM9.69687 8.79063C9.33437 9.15313 8.79062 9.15313 8.42812 8.79063L4.16875 4.53125H13.9562L9.69687 8.79063Z" fill="white"/>
</svg>
