<svg width="32" height="36" viewBox="0 0 32 36" fill="none" xmlns="http://www.w3.org/2000/svg">
<path d="M17.1281 6.44063L22.7602 9.73125C22.9641 9.84375 22.9711 10.1672 22.7602 10.2797L16.0664 14.1891C15.8625 14.3086 15.6234 14.3016 15.4336 14.1891L8.73984 10.2797C8.53594 10.1672 8.52891 9.83672 8.73984 9.73125L14.3719 6.44063V0L0 8.39531V25.1859L5.5125 21.9656V15.3844C5.50547 15.1523 5.77969 14.9836 5.98359 15.1102L12.6773 19.0195C12.8812 19.1391 12.9937 19.35 12.9937 19.568V27.3867C13.0008 27.6187 12.7266 27.7875 12.5227 27.6609L6.89062 24.3844L1.37812 27.6047L15.75 36L30.1219 27.6047L24.6094 24.3844L18.9773 27.675C18.7805 27.7945 18.4992 27.6398 18.5063 27.4008V19.582C18.5063 19.35 18.6328 19.1391 18.8227 19.0336L25.5164 15.1172C25.7133 14.9977 25.9945 15.1523 25.9875 15.3914V21.9727L31.5 25.193V8.40234L17.1281 0.00703114V6.44766V6.44063Z" fill="black"/>
</svg>
